<mxfile host="Electron" agent="Mozilla/5.0 (Windows NT 10.0; Win64; x64) AppleWebKit/537.36 (KHTML, like Gecko) draw.io/28.0.6 Chrome/138.0.7204.100 Electron/37.2.3 Safari/537.36" version="28.0.6">
  <diagram name="第 1 页" id="5ffuDU4hIFAlMKok4vvh">
    <mxGraphModel dx="1917" dy="613" grid="1" gridSize="10" guides="1" tooltips="1" connect="1" arrows="1" fold="1" page="1" pageScale="1" pageWidth="827" pageHeight="1169" math="0" shadow="0">
      <root>
        <mxCell id="0" />
        <mxCell id="1" parent="0" />
        <mxCell id="07CD5l8h8XVzDvu4tCsN-2" value="" style="rounded=1;whiteSpace=wrap;html=1;fillColor=#d5e8d4;strokeColor=#82b366;" vertex="1" parent="1">
          <mxGeometry x="270" y="240" width="670" height="720" as="geometry" />
        </mxCell>
        <mxCell id="07CD5l8h8XVzDvu4tCsN-10" style="edgeStyle=orthogonalEdgeStyle;rounded=0;orthogonalLoop=1;jettySize=auto;html=1;entryX=0.5;entryY=0;entryDx=0;entryDy=0;" edge="1" parent="1" source="07CD5l8h8XVzDvu4tCsN-1" target="07CD5l8h8XVzDvu4tCsN-4">
          <mxGeometry relative="1" as="geometry" />
        </mxCell>
        <mxCell id="07CD5l8h8XVzDvu4tCsN-1" value="User/Doctor Questions" style="ellipse;whiteSpace=wrap;html=1;fillColor=#fff2cc;strokeColor=#d6b656;" vertex="1" parent="1">
          <mxGeometry x="430" y="140" width="120" height="80" as="geometry" />
        </mxCell>
        <mxCell id="07CD5l8h8XVzDvu4tCsN-3" value="The process of Agentive AI with Spiral CBR model" style="text;whiteSpace=wrap;html=1;" vertex="1" parent="1">
          <mxGeometry x="630" y="220" width="300" height="40" as="geometry" />
        </mxCell>
        <mxCell id="07CD5l8h8XVzDvu4tCsN-11" style="edgeStyle=orthogonalEdgeStyle;rounded=0;orthogonalLoop=1;jettySize=auto;html=1;exitX=0.5;exitY=1;exitDx=0;exitDy=0;entryX=0.5;entryY=0;entryDx=0;entryDy=0;" edge="1" parent="1" source="07CD5l8h8XVzDvu4tCsN-4" target="07CD5l8h8XVzDvu4tCsN-5">
          <mxGeometry relative="1" as="geometry" />
        </mxCell>
        <mxCell id="07CD5l8h8XVzDvu4tCsN-4" value="Extract problem features" style="rounded=1;whiteSpace=wrap;html=1;fillColor=#dae8fc;strokeColor=#6c8ebf;" vertex="1" parent="1">
          <mxGeometry x="420" y="270" width="140" height="40" as="geometry" />
        </mxCell>
        <mxCell id="07CD5l8h8XVzDvu4tCsN-12" style="edgeStyle=orthogonalEdgeStyle;rounded=0;orthogonalLoop=1;jettySize=auto;html=1;exitX=0.5;exitY=1;exitDx=0;exitDy=0;entryX=0.5;entryY=0;entryDx=0;entryDy=0;" edge="1" parent="1" source="07CD5l8h8XVzDvu4tCsN-5" target="07CD5l8h8XVzDvu4tCsN-7">
          <mxGeometry relative="1" as="geometry" />
        </mxCell>
        <mxCell id="07CD5l8h8XVzDvu4tCsN-5" value="Feature information check" style="rounded=1;whiteSpace=wrap;html=1;fillColor=#dae8fc;strokeColor=#6c8ebf;" vertex="1" parent="1">
          <mxGeometry x="415" y="340" width="150" height="40" as="geometry" />
        </mxCell>
        <mxCell id="07CD5l8h8XVzDvu4tCsN-13" style="edgeStyle=orthogonalEdgeStyle;rounded=0;orthogonalLoop=1;jettySize=auto;html=1;exitX=0.5;exitY=1;exitDx=0;exitDy=0;entryX=0.5;entryY=0;entryDx=0;entryDy=0;" edge="1" parent="1" source="07CD5l8h8XVzDvu4tCsN-7" target="07CD5l8h8XVzDvu4tCsN-8">
          <mxGeometry relative="1" as="geometry" />
        </mxCell>
        <mxCell id="07CD5l8h8XVzDvu4tCsN-7" value="Task decomposition and parameter setting" style="rounded=1;whiteSpace=wrap;html=1;fillColor=#dae8fc;strokeColor=#6c8ebf;" vertex="1" parent="1">
          <mxGeometry x="430" y="410" width="120" height="40" as="geometry" />
        </mxCell>
        <mxCell id="07CD5l8h8XVzDvu4tCsN-8" value="Multi-layer attribute retrieval" style="rounded=1;whiteSpace=wrap;html=1;fillColor=#dae8fc;strokeColor=#6c8ebf;" vertex="1" parent="1">
          <mxGeometry x="430" y="480" width="120" height="40" as="geometry" />
        </mxCell>
        <mxCell id="07CD5l8h8XVzDvu4tCsN-9" value="" style="rounded=1;whiteSpace=wrap;html=1;fillColor=#ffe6cc;strokeColor=#d79b00;" vertex="1" parent="1">
          <mxGeometry x="350" y="540" width="540" height="340" as="geometry" />
        </mxCell>
        <mxCell id="07CD5l8h8XVzDvu4tCsN-24" style="edgeStyle=orthogonalEdgeStyle;rounded=0;orthogonalLoop=1;jettySize=auto;html=1;" edge="1" parent="1" source="07CD5l8h8XVzDvu4tCsN-14" target="07CD5l8h8XVzDvu4tCsN-15">
          <mxGeometry relative="1" as="geometry" />
        </mxCell>
        <mxCell id="07CD5l8h8XVzDvu4tCsN-14" value="Single highly relevant case feedback" style="rounded=1;whiteSpace=wrap;html=1;fillColor=#dae8fc;strokeColor=#6c8ebf;" vertex="1" parent="1">
          <mxGeometry x="430" y="570" width="120" height="40" as="geometry" />
        </mxCell>
        <mxCell id="07CD5l8h8XVzDvu4tCsN-25" style="edgeStyle=orthogonalEdgeStyle;rounded=0;orthogonalLoop=1;jettySize=auto;html=1;exitX=0.5;exitY=1;exitDx=0;exitDy=0;entryX=0.5;entryY=0;entryDx=0;entryDy=0;" edge="1" parent="1" source="07CD5l8h8XVzDvu4tCsN-15" target="07CD5l8h8XVzDvu4tCsN-17">
          <mxGeometry relative="1" as="geometry" />
        </mxCell>
        <mxCell id="07CD5l8h8XVzDvu4tCsN-15" value="Fine-tune, weight, and integrate the highly relevant cases returned" style="rounded=1;whiteSpace=wrap;html=1;fillColor=#dae8fc;strokeColor=#6c8ebf;" vertex="1" parent="1">
          <mxGeometry x="420" y="640" width="140" height="60" as="geometry" />
        </mxCell>
        <mxCell id="07CD5l8h8XVzDvu4tCsN-26" style="edgeStyle=orthogonalEdgeStyle;rounded=0;orthogonalLoop=1;jettySize=auto;html=1;exitX=0.5;exitY=1;exitDx=0;exitDy=0;entryX=0.5;entryY=0;entryDx=0;entryDy=0;" edge="1" parent="1" source="07CD5l8h8XVzDvu4tCsN-17" target="07CD5l8h8XVzDvu4tCsN-18">
          <mxGeometry relative="1" as="geometry" />
        </mxCell>
        <mxCell id="07CD5l8h8XVzDvu4tCsN-17" value="Decision-making applications and monitoring" style="rounded=1;whiteSpace=wrap;html=1;fillColor=#dae8fc;strokeColor=#6c8ebf;" vertex="1" parent="1">
          <mxGeometry x="427.5" y="720" width="125" height="50" as="geometry" />
        </mxCell>
        <mxCell id="07CD5l8h8XVzDvu4tCsN-18" value="&lt;div style=&quot;text-align: start;&quot;&gt;User Feedback&lt;/div&gt;" style="rounded=1;whiteSpace=wrap;html=1;fillColor=#dae8fc;strokeColor=#6c8ebf;" vertex="1" parent="1">
          <mxGeometry x="427.5" y="800" width="120" height="40" as="geometry" />
        </mxCell>
        <mxCell id="07CD5l8h8XVzDvu4tCsN-30" style="edgeStyle=orthogonalEdgeStyle;rounded=0;orthogonalLoop=1;jettySize=auto;html=1;exitX=0.5;exitY=0;exitDx=0;exitDy=0;entryX=0.5;entryY=1;entryDx=0;entryDy=0;" edge="1" parent="1" source="07CD5l8h8XVzDvu4tCsN-19" target="07CD5l8h8XVzDvu4tCsN-20">
          <mxGeometry relative="1" as="geometry" />
        </mxCell>
        <mxCell id="07CD5l8h8XVzDvu4tCsN-19" value="&lt;div style=&quot;text-align: center;&quot;&gt;Conduct the spiral CBR model interactive guidance again&lt;/div&gt;" style="rounded=1;whiteSpace=wrap;html=1;fillColor=#dae8fc;strokeColor=#6c8ebf;" vertex="1" parent="1">
          <mxGeometry x="660" y="710" width="170" height="50" as="geometry" />
        </mxCell>
        <mxCell id="07CD5l8h8XVzDvu4tCsN-31" style="edgeStyle=orthogonalEdgeStyle;rounded=0;orthogonalLoop=1;jettySize=auto;html=1;entryX=1;entryY=0.5;entryDx=0;entryDy=0;" edge="1" parent="1" source="07CD5l8h8XVzDvu4tCsN-20" target="07CD5l8h8XVzDvu4tCsN-14">
          <mxGeometry relative="1" as="geometry">
            <Array as="points">
              <mxPoint x="745" y="590" />
            </Array>
          </mxGeometry>
        </mxCell>
        <mxCell id="07CD5l8h8XVzDvu4tCsN-20" value="Remove the current use case and retrieve" style="rounded=1;whiteSpace=wrap;html=1;fillColor=#dae8fc;strokeColor=#6c8ebf;" vertex="1" parent="1">
          <mxGeometry x="685" y="610" width="120" height="40" as="geometry" />
        </mxCell>
        <mxCell id="07CD5l8h8XVzDvu4tCsN-34" style="edgeStyle=orthogonalEdgeStyle;rounded=0;orthogonalLoop=1;jettySize=auto;html=1;" edge="1" parent="1" source="07CD5l8h8XVzDvu4tCsN-21" target="07CD5l8h8XVzDvu4tCsN-32">
          <mxGeometry relative="1" as="geometry" />
        </mxCell>
        <mxCell id="07CD5l8h8XVzDvu4tCsN-21" value="&lt;div style=&quot;text-align: start;&quot;&gt;Suitable&lt;/div&gt;" style="rounded=1;whiteSpace=wrap;html=1;fillColor=#dae8fc;strokeColor=#6c8ebf;" vertex="1" parent="1">
          <mxGeometry x="350" y="900" width="120" height="40" as="geometry" />
        </mxCell>
        <mxCell id="07CD5l8h8XVzDvu4tCsN-29" style="edgeStyle=orthogonalEdgeStyle;rounded=0;orthogonalLoop=1;jettySize=auto;html=1;entryX=0.5;entryY=1;entryDx=0;entryDy=0;" edge="1" parent="1" source="07CD5l8h8XVzDvu4tCsN-22" target="07CD5l8h8XVzDvu4tCsN-19">
          <mxGeometry relative="1" as="geometry" />
        </mxCell>
        <mxCell id="07CD5l8h8XVzDvu4tCsN-22" value="&lt;div style=&quot;text-align: start;&quot;&gt;Non-conformity&lt;/div&gt;" style="rounded=1;whiteSpace=wrap;html=1;fillColor=#dae8fc;strokeColor=#6c8ebf;" vertex="1" parent="1">
          <mxGeometry x="530" y="900" width="120" height="40" as="geometry" />
        </mxCell>
        <mxCell id="07CD5l8h8XVzDvu4tCsN-27" value="" style="endArrow=classic;html=1;rounded=0;exitX=0.75;exitY=1;exitDx=0;exitDy=0;entryX=0.5;entryY=0;entryDx=0;entryDy=0;" edge="1" parent="1" target="07CD5l8h8XVzDvu4tCsN-22">
          <mxGeometry width="50" height="50" relative="1" as="geometry">
            <mxPoint x="500.5" y="840" as="sourcePoint" />
            <mxPoint x="547.5" y="880" as="targetPoint" />
          </mxGeometry>
        </mxCell>
        <mxCell id="07CD5l8h8XVzDvu4tCsN-28" value="" style="endArrow=classic;html=1;rounded=0;exitX=0.25;exitY=1;exitDx=0;exitDy=0;entryX=0.5;entryY=0;entryDx=0;entryDy=0;" edge="1" parent="1" target="07CD5l8h8XVzDvu4tCsN-21">
          <mxGeometry width="50" height="50" relative="1" as="geometry">
            <mxPoint x="465" y="840" as="sourcePoint" />
            <mxPoint x="430" y="880" as="targetPoint" />
          </mxGeometry>
        </mxCell>
        <mxCell id="07CD5l8h8XVzDvu4tCsN-23" style="edgeStyle=orthogonalEdgeStyle;rounded=0;orthogonalLoop=1;jettySize=auto;html=1;entryX=0.5;entryY=0;entryDx=0;entryDy=0;" edge="1" parent="1" source="07CD5l8h8XVzDvu4tCsN-8" target="07CD5l8h8XVzDvu4tCsN-14">
          <mxGeometry relative="1" as="geometry" />
        </mxCell>
        <mxCell id="07CD5l8h8XVzDvu4tCsN-35" style="edgeStyle=orthogonalEdgeStyle;rounded=0;orthogonalLoop=1;jettySize=auto;html=1;exitX=0;exitY=0.5;exitDx=0;exitDy=0;entryX=1;entryY=0.5;entryDx=0;entryDy=0;" edge="1" parent="1" source="07CD5l8h8XVzDvu4tCsN-32" target="07CD5l8h8XVzDvu4tCsN-33">
          <mxGeometry relative="1" as="geometry" />
        </mxCell>
        <mxCell id="07CD5l8h8XVzDvu4tCsN-32" value="&lt;div style=&quot;text-align: start;&quot;&gt;Decision processing and annotation&lt;/div&gt;" style="rounded=1;whiteSpace=wrap;html=1;fillColor=#dae8fc;strokeColor=#6c8ebf;" vertex="1" parent="1">
          <mxGeometry x="305" y="1010" width="210" height="40" as="geometry" />
        </mxCell>
        <mxCell id="07CD5l8h8XVzDvu4tCsN-39" style="edgeStyle=orthogonalEdgeStyle;rounded=0;orthogonalLoop=1;jettySize=auto;html=1;" edge="1" parent="1" source="07CD5l8h8XVzDvu4tCsN-33" target="07CD5l8h8XVzDvu4tCsN-38">
          <mxGeometry relative="1" as="geometry" />
        </mxCell>
        <mxCell id="07CD5l8h8XVzDvu4tCsN-33" value="&lt;font style=&quot;color: rgb(0, 0, 0);&quot;&gt;New feedback case knowledge base&lt;/font&gt;" style="rounded=1;whiteSpace=wrap;html=1;fillColor=#d9ead3;strokeColor=#274e13;" vertex="1" parent="1">
          <mxGeometry x="-30" y="1000" width="210" height="60" as="geometry" />
        </mxCell>
        <mxCell id="07CD5l8h8XVzDvu4tCsN-36" value="&lt;font style=&quot;color: rgb(0, 0, 0);&quot;&gt;Vector knowledge base with RAG function&lt;/font&gt;" style="rounded=1;whiteSpace=wrap;html=1;fillColor=#f2e8d8;strokeColor=#b68b32;" vertex="1" parent="1">
          <mxGeometry x="-80" y="685" width="230" height="50" as="geometry" />
        </mxCell>
        <mxCell id="07CD5l8h8XVzDvu4tCsN-37" style="edgeStyle=orthogonalEdgeStyle;rounded=0;orthogonalLoop=1;jettySize=auto;html=1;entryX=0;entryY=0.5;entryDx=0;entryDy=0;startArrow=classic;startFill=1;" edge="1" parent="1" source="07CD5l8h8XVzDvu4tCsN-36" target="07CD5l8h8XVzDvu4tCsN-9">
          <mxGeometry relative="1" as="geometry" />
        </mxCell>
        <mxCell id="07CD5l8h8XVzDvu4tCsN-40" style="edgeStyle=orthogonalEdgeStyle;rounded=0;orthogonalLoop=1;jettySize=auto;html=1;entryX=0;entryY=0.5;entryDx=0;entryDy=0;" edge="1" parent="1" source="07CD5l8h8XVzDvu4tCsN-38" target="07CD5l8h8XVzDvu4tCsN-36">
          <mxGeometry relative="1" as="geometry" />
        </mxCell>
        <mxCell id="07CD5l8h8XVzDvu4tCsN-38" value="&lt;font style=&quot;color: rgb(0, 0, 0);&quot;&gt;Embedding&amp;nbsp;&lt;/font&gt;" style="rounded=1;whiteSpace=wrap;html=1;fillColor=#e9ecf3;strokeColor=#777bbb;" vertex="1" parent="1">
          <mxGeometry x="-340" y="685" width="160" height="50" as="geometry" />
        </mxCell>
        <mxCell id="07CD5l8h8XVzDvu4tCsN-43" style="edgeStyle=orthogonalEdgeStyle;rounded=0;orthogonalLoop=1;jettySize=auto;html=1;entryX=0.5;entryY=0;entryDx=0;entryDy=0;" edge="1" parent="1" source="07CD5l8h8XVzDvu4tCsN-41" target="07CD5l8h8XVzDvu4tCsN-42">
          <mxGeometry relative="1" as="geometry" />
        </mxCell>
        <mxCell id="07CD5l8h8XVzDvu4tCsN-41" value="&lt;font color=&quot;#000000&quot;&gt;data&lt;/font&gt;" style="rounded=1;whiteSpace=wrap;html=1;fillColor=#d2e7fa;strokeColor=#185494;" vertex="1" parent="1">
          <mxGeometry x="-590" y="510" width="160" height="80" as="geometry" />
        </mxCell>
        <mxCell id="07CD5l8h8XVzDvu4tCsN-44" style="edgeStyle=orthogonalEdgeStyle;rounded=0;orthogonalLoop=1;jettySize=auto;html=1;" edge="1" parent="1" source="07CD5l8h8XVzDvu4tCsN-42" target="07CD5l8h8XVzDvu4tCsN-38">
          <mxGeometry relative="1" as="geometry" />
        </mxCell>
        <mxCell id="07CD5l8h8XVzDvu4tCsN-42" value="&lt;font color=&quot;#000000&quot;&gt;Data processing&lt;/font&gt;" style="rounded=1;whiteSpace=wrap;html=1;fillColor=#e1f7e7;strokeColor=#3a915d;" vertex="1" parent="1">
          <mxGeometry x="-585" y="670" width="150" height="80" as="geometry" />
        </mxCell>
        <mxCell id="07CD5l8h8XVzDvu4tCsN-45" value="&lt;span style=&quot;color: rgb(0, 0, 0); font-family: Helvetica; font-size: 12px; font-style: normal; font-variant-ligatures: normal; font-variant-caps: normal; font-weight: 400; letter-spacing: normal; orphans: 2; text-align: left; text-indent: 0px; text-transform: none; widows: 2; word-spacing: 0px; -webkit-text-stroke-width: 0px; white-space: normal; background-color: rgb(236, 236, 236); text-decoration-thickness: initial; text-decoration-style: initial; text-decoration-color: initial; display: inline !important; float: none;&quot;&gt;S-CBR mechanism&lt;/span&gt;" style="text;whiteSpace=wrap;html=1;" vertex="1" parent="1">
          <mxGeometry x="700" y="520" width="120" height="40" as="geometry" />
        </mxCell>
      </root>
    </mxGraphModel>
  </diagram>
</mxfile>
